<svg width="150" height="131" viewBox="0 0 150 131" fill="none" xmlns="http://www.w3.org/2000/svg">
<path d="M75.3198 85.8419H74.8215L63.2925 65.8732L51.7637 45.9048L52.014 45.4714L75.0688 45.4714L98.1273 45.4714L98.3775 45.9048L86.8488 65.8732L75.3198 85.8419ZM75.3198 85.8419H79.0726L89.6624 67.4979L93.6084 69.7759L93.3859 69.6474L93.3798 69.6439L75.3198 85.8419ZM53.0814 109.729L57.0526 116.608L64.9956 116.608H85.1384H93.0814L97.0526 109.729L113.491 81.2537L113.491 81.2537L129.929 52.7787L133.9 45.9006L129.929 39.0226L119.859 21.5807L115.888 14.7019H107.945L42.1886 14.7019H34.2458L30.2745 21.5807L20.205 39.0226L16.2342 45.9006L20.2048 52.7787L36.6431 81.2537L53.0814 109.729ZM93.6737 69.8136L93.4564 69.6881L93.6737 69.8136Z" fill="#DAD7D9" stroke="#DAD7D9" stroke-width="27.514"/>
</svg>
