<svg width="150" height="131" viewBox="0 0 150 131" fill="none" xmlns="http://www.w3.org/2000/svg">
<path d="M74.7635 45.4676H75.2618L86.7908 65.4364L98.3195 85.4047L98.0692 85.8382H75.0145H51.956L51.7057 85.4047L63.2345 65.4363L74.7635 45.4676ZM74.7635 45.4676H71.0107L60.4209 63.8117L56.4748 61.5337L56.6973 61.6621L56.7035 61.6657L74.7635 45.4676ZM97.0019 21.5808L93.0307 14.7017H85.0876H64.9449H57.0018L53.0306 21.5808L36.5924 50.0558L36.5924 50.0558L20.1541 78.5308L16.1835 85.4089L20.1543 92.287L30.2238 109.729L34.1951 116.608H42.1379H107.895H115.837L119.809 109.729L129.878 92.287L133.849 85.4089L129.878 78.5308L113.44 50.0558L97.0019 21.5808ZM56.4095 61.496L56.6268 61.6214L56.4095 61.496Z" fill="#DAD7D9" stroke="#DAD7D9" stroke-width="27.514"/>
</svg>

