<svg width="11" height="33" viewBox="0 0 11 33" fill="none" xmlns="http://www.w3.org/2000/svg">
<path d="M10.8254 9.4391C10.8254 9.96261 10.52 10.2244 9.90925 10.2244C7.16082 10.2244 5.02316 10.2244 3.49626 10.2244C1.96935 10.2244 1.16227 10.1807 1.07502 10.0935C0.987771 10.0062 0.922333 9.78811 0.878707 9.4391V0.997504C0.922333 0.648498 0.987771 0.430369 1.07502 0.343117C1.16227 0.255864 1.3804 0.212238 1.72941 0.212238C4.43421 0.212238 7.16082 0.212238 9.90925 0.212238C10.52 0.212238 10.8254 0.473993 10.8254 0.997504V9.4391ZM10.8254 32.2118C10.8254 32.7353 10.52 32.997 9.90925 32.997C7.16082 32.997 5.02316 32.997 3.49626 32.997C1.96935 32.997 1.16227 32.9534 1.07502 32.8662C0.987771 32.7789 0.922333 32.5608 0.878707 32.2118V23.7702C0.922333 23.4212 0.987771 23.203 1.07502 23.1158C1.16227 23.0285 1.3804 22.9849 1.72941 22.9849C4.43421 22.9849 7.16082 22.9849 9.90925 22.9849C10.52 22.9849 10.8254 23.2467 10.8254 23.7702V32.2118Z" fill="#B51C69"/>
</svg>
