<svg width="90" height="90" viewBox="0 0 90 90" fill="none" xmlns="http://www.w3.org/2000/svg">
<rect x="0.333374" width="89.3333" height="89.3333" rx="44.6667" fill="#DAD7D9"/>
<path d="M65.0999 44.6665C65.0999 33.6115 56.0549 24.5665 44.9999 24.5665C33.9449 24.5665 24.8999 33.6115 24.8999 44.6665C24.8999 54.7165 32.1862 63.0078 41.7337 64.5153V50.4453H36.7087V44.6665H41.7337V40.144C41.7337 35.119 44.7487 32.3553 49.2712 32.3553C51.5324 32.3553 53.7937 32.8578 53.7937 32.8578V37.8828H51.2812C48.7687 37.8828 48.0149 39.3903 48.0149 40.8978V44.6665H53.5424L52.5374 50.4453H47.7637V64.7665C57.8137 63.259 65.0999 54.7165 65.0999 44.6665Z" fill="#5F0235"/>
</svg>
