<svg width="90" height="90" viewBox="0 0 90 90" fill="none" xmlns="http://www.w3.org/2000/svg">
<rect x="0.333252" width="89.3333" height="89.3333" rx="44.6667" fill="#DAD7D9"/>
<path d="M65.0999 44.6664C65.0999 33.6114 56.0549 24.5664 44.9999 24.5664C33.9449 24.5664 24.8999 33.6114 24.8999 44.6664C24.8999 54.7164 32.1862 63.0077 41.7337 64.5152V50.4452H36.7087V44.6664H41.7337V40.1439C41.7337 35.1189 44.7487 32.3552 49.2712 32.3552C51.5324 32.3552 53.7937 32.8577 53.7937 32.8577V37.8827H51.2812C48.7687 37.8827 48.0149 39.3902 48.0149 40.8977V44.6664H53.5424L52.5374 50.4452H47.7637V64.7664C57.8137 63.2589 65.0999 54.7164 65.0999 44.6664Z" fill="#5F0235"/>
</svg>
