<svg width="90" height="90" viewBox="0 0 90 90" fill="none" xmlns="http://www.w3.org/2000/svg">
<rect width="89.3333" height="89.3333" rx="44.6667" fill="#DAD7D9"/>
<path d="M44.6667 28.1994C49.9944 28.1994 50.7209 28.1994 52.9004 28.1994C54.8377 28.1994 55.8064 28.6838 56.5329 28.9259C57.5016 29.4103 58.2281 29.6524 58.9546 30.3789C59.6811 31.1055 60.1655 31.832 60.4076 32.8006C60.6498 33.5271 60.892 34.4958 61.1341 36.4332C61.1341 38.6127 61.1341 39.097 61.1341 44.6669C61.1341 50.2368 61.1341 50.7211 61.1341 52.9006C61.1341 54.838 60.6498 55.8067 60.4076 56.5332C59.9233 57.5018 59.6811 58.2283 58.9546 58.9549C58.2281 59.6814 57.5016 60.1657 56.5329 60.4079C55.8064 60.65 54.8377 60.8922 52.9004 61.1344C50.7209 61.1344 50.2365 61.1344 44.6667 61.1344C39.0968 61.1344 38.6124 61.1344 36.4329 61.1344C34.4956 61.1344 33.5269 60.65 32.8004 60.4079C31.8317 59.9235 31.1052 59.6814 30.3787 58.9549C29.6522 58.2283 29.1679 57.5018 28.9257 56.5332C28.6835 55.8067 28.4413 54.838 28.1992 52.9006C28.1992 50.7211 28.1992 50.2368 28.1992 44.6669C28.1992 39.097 28.1992 38.6127 28.1992 36.4332C28.1992 34.4958 28.6835 33.5271 28.9257 32.8006C29.41 31.832 29.6522 31.1055 30.3787 30.3789C31.1052 29.6524 31.8317 29.1681 32.8004 28.9259C33.5269 28.6838 34.4956 28.4416 36.4329 28.1994C38.6124 28.1994 39.3389 28.1994 44.6667 28.1994ZM44.6667 24.5669C39.0968 24.5669 38.6124 24.5669 36.4329 24.5669C34.2534 24.5669 32.8004 25.0512 31.5895 25.5356C30.3787 26.0199 29.1679 26.7464 27.957 27.9573C26.7462 29.1681 26.2618 30.1368 25.5353 31.5898C25.051 32.8006 24.8088 34.2536 24.5667 36.4332C24.5667 38.6127 24.5667 39.3392 24.5667 44.6669C24.5667 50.2368 24.5667 50.7211 24.5667 52.9006C24.5667 55.0802 25.051 56.5332 25.5353 57.744C26.0197 58.9549 26.7462 60.1657 27.957 61.3765C29.1679 62.5874 30.1365 63.0717 31.5895 63.7982C32.8004 64.2826 34.2534 64.5247 36.4329 64.7669C38.6124 64.7669 39.3389 64.7669 44.6667 64.7669C49.9944 64.7669 50.7209 64.7669 52.9004 64.7669C55.0799 64.7669 56.5329 64.2826 57.7438 63.7982C58.9546 63.3139 60.1655 62.5874 61.3763 61.3765C62.5871 60.1657 63.0715 59.197 63.798 57.744C64.2823 56.5332 64.5245 55.0802 64.7667 52.9006C64.7667 50.7211 64.7667 49.9946 64.7667 44.6669C64.7667 39.3392 64.7667 38.6127 64.7667 36.4332C64.7667 34.2536 64.2823 32.8006 63.798 31.5898C63.3136 30.3789 62.5871 29.1681 61.3763 27.9573C60.1655 26.7464 59.1968 26.2621 57.7438 25.5356C56.5329 25.0512 55.0799 24.8091 52.9004 24.5669C50.7209 24.5669 50.2365 24.5669 44.6667 24.5669Z" fill="#5F0235"/>
<path d="M44.6667 34.2536C38.8546 34.2536 34.2534 38.8548 34.2534 44.6669C34.2534 50.4789 38.8546 55.0802 44.6667 55.0802C50.4787 55.0802 55.0799 50.4789 55.0799 44.6669C55.0799 38.8548 50.4787 34.2536 44.6667 34.2536ZM44.6667 51.4476C41.0341 51.4476 37.8859 48.5416 37.8859 44.6669C37.8859 41.0344 40.792 37.8862 44.6667 37.8862C48.2992 37.8862 51.4474 40.7922 51.4474 44.6669C51.4474 48.2994 48.2992 51.4476 44.6667 51.4476Z" fill="#5F0235"/>
<path d="M55.3221 36.4332C56.6595 36.4332 57.7438 35.3489 57.7438 34.0115C57.7438 32.674 56.6595 31.5898 55.3221 31.5898C53.9846 31.5898 52.9004 32.674 52.9004 34.0115C52.9004 35.3489 53.9846 36.4332 55.3221 36.4332Z" fill="#5F0235"/>
</svg>
