<svg width="90" height="90" viewBox="0 0 90 90" fill="none" xmlns="http://www.w3.org/2000/svg">
<rect width="89.3333" height="89.3333" rx="44.6667" fill="#DAD7D9"/>
<path d="M44.6665 28.1992C49.9942 28.1992 50.7207 28.1992 52.9003 28.1992C54.8376 28.1992 55.8063 28.6835 56.5328 28.9257C57.5015 29.41 58.228 29.6522 58.9545 30.3787C59.681 31.1052 60.1653 31.8317 60.4075 32.8004C60.6497 33.5269 60.8918 34.4956 61.134 36.4329C61.134 38.6124 61.134 39.0968 61.134 44.6667C61.134 50.2365 61.134 50.7209 61.134 52.9004C61.134 54.8377 60.6497 55.8064 60.4075 56.5329C59.9232 57.5016 59.681 58.2281 58.9545 58.9546C58.228 59.6811 57.5015 60.1655 56.5328 60.4076C55.8063 60.6498 54.8376 60.892 52.9003 61.1341C50.7207 61.1341 50.2364 61.1341 44.6665 61.1341C39.0967 61.1341 38.6123 61.1341 36.4328 61.1341C34.4954 61.1341 33.5268 60.6498 32.8003 60.4076C31.8316 59.9233 31.1051 59.6811 30.3786 58.9546C29.6521 58.2281 29.1677 57.5016 28.9256 56.5329C28.6834 55.8064 28.4412 54.8377 28.1991 52.9004C28.1991 50.7209 28.1991 50.2365 28.1991 44.6667C28.1991 39.0968 28.1991 38.6124 28.1991 36.4329C28.1991 34.4956 28.6834 33.5269 28.9256 32.8004C29.4099 31.8317 29.6521 31.1052 30.3786 30.3787C31.1051 29.6522 31.8316 29.1679 32.8003 28.9257C33.5268 28.6835 34.4954 28.4413 36.4328 28.1992C38.6123 28.1992 39.3388 28.1992 44.6665 28.1992ZM44.6665 24.5667C39.0967 24.5667 38.6123 24.5667 36.4328 24.5667C34.2533 24.5667 32.8003 25.051 31.5894 25.5353C30.3786 26.0197 29.1677 26.7462 27.9569 27.957C26.746 29.1679 26.2617 30.1365 25.5352 31.5895C25.0509 32.8004 24.8087 34.2534 24.5665 36.4329C24.5665 38.6124 24.5665 39.3389 24.5665 44.6667C24.5665 50.2365 24.5665 50.7209 24.5665 52.9004C24.5665 55.0799 25.0509 56.5329 25.5352 57.7438C26.0195 58.9546 26.746 60.1655 27.9569 61.3763C29.1677 62.5871 30.1364 63.0715 31.5894 63.798C32.8003 64.2823 34.2533 64.5245 36.4328 64.7667C38.6123 64.7667 39.3388 64.7667 44.6665 64.7667C49.9942 64.7667 50.7207 64.7667 52.9003 64.7667C55.0798 64.7667 56.5328 64.2823 57.7436 63.798C58.9545 63.3136 60.1653 62.5871 61.3762 61.3763C62.587 60.1655 63.0714 59.1968 63.7979 57.7438C64.2822 56.5329 64.5244 55.0799 64.7665 52.9004C64.7665 50.7209 64.7665 49.9944 64.7665 44.6667C64.7665 39.3389 64.7665 38.6124 64.7665 36.4329C64.7665 34.2534 64.2822 32.8004 63.7979 31.5895C63.3135 30.3787 62.587 29.1679 61.3762 27.957C60.1653 26.7462 59.1967 26.2618 57.7436 25.5353C56.5328 25.051 55.0798 24.8088 52.9003 24.5667C50.7207 24.5667 50.2364 24.5667 44.6665 24.5667Z" fill="#5F0235"/>
<path d="M44.6665 34.2534C38.8545 34.2534 34.2533 38.8546 34.2533 44.6667C34.2533 50.4787 38.8545 55.0799 44.6665 55.0799C50.4786 55.0799 55.0798 50.4787 55.0798 44.6667C55.0798 38.8546 50.4786 34.2534 44.6665 34.2534ZM44.6665 51.4474C41.034 51.4474 37.8858 48.5414 37.8858 44.6667C37.8858 41.0341 40.7918 37.8859 44.6665 37.8859C48.2991 37.8859 51.4473 40.792 51.4473 44.6667C51.4473 48.2992 48.2991 51.4474 44.6665 51.4474Z" fill="#5F0235"/>
<path d="M55.322 36.4329C56.6594 36.4329 57.7436 35.3487 57.7436 34.0112C57.7436 32.6738 56.6594 31.5895 55.322 31.5895C53.9845 31.5895 52.9003 32.6738 52.9003 34.0112C52.9003 35.3487 53.9845 36.4329 55.322 36.4329Z" fill="#5F0235"/>
</svg>
