<svg width="101" height="101" viewBox="0 0 101 101" fill="none" xmlns="http://www.w3.org/2000/svg">
<rect x="0.156677" y="0.267578" width="100.138" height="100.138" rx="50.0691" fill="#DAD7D9"/>
<path d="M72.7568 50.3367C72.7568 37.9446 62.6178 27.8057 50.2257 27.8057C37.8336 27.8057 27.6946 37.9446 27.6946 50.3367C27.6946 61.6023 35.8622 70.8963 46.5644 72.5862V56.8144H40.9316V50.3367H46.5644V45.2672C46.5644 39.6345 49.9441 36.5365 55.0136 36.5365C57.5483 36.5365 60.0831 37.0997 60.0831 37.0997V42.7325H57.2667C54.4503 42.7325 53.6054 44.4223 53.6054 46.1122V50.3367H59.8014L58.6749 56.8144H53.3237V72.8678C64.5893 71.178 72.7568 61.6023 72.7568 50.3367Z" fill="#35296D"/>
</svg>
