<svg width="101" height="101" viewBox="0 0 101 101" fill="none" xmlns="http://www.w3.org/2000/svg">
<rect x="0.34259" y="0.267578" width="100.138" height="100.138" rx="50.0691" fill="#DAD7D9"/>
<path d="M50.4116 31.8775C56.3837 31.8775 57.198 31.8775 59.6412 31.8775C61.8128 31.8775 62.8987 32.4205 63.7131 32.6919C64.7989 33.2348 65.6133 33.5063 66.4276 34.3207C67.242 35.1351 67.7849 35.9494 68.0564 37.0353C68.3279 37.8496 68.5993 38.9355 68.8708 41.1071C68.8708 43.5503 68.8708 44.0932 68.8708 50.3367C68.8708 56.5803 68.8708 57.1232 68.8708 59.5663C68.8708 61.738 68.3279 62.8238 68.0564 63.6382C67.5135 64.7241 67.242 65.5384 66.4276 66.3528C65.6133 67.1672 64.7989 67.7101 63.7131 67.9816C62.8987 68.253 61.8128 68.5245 59.6412 68.7959C57.198 68.7959 56.6551 68.7959 50.4116 68.7959C44.168 68.7959 43.6251 68.7959 41.182 68.7959C39.0103 68.7959 37.9245 68.253 37.1101 67.9816C36.0243 67.4386 35.2099 67.1672 34.3955 66.3528C33.5811 65.5384 33.0382 64.7241 32.7668 63.6382C32.4953 62.8238 32.2238 61.738 31.9524 59.5663C31.9524 57.1232 31.9524 56.5803 31.9524 50.3367C31.9524 44.0932 31.9524 43.5503 31.9524 41.1071C31.9524 38.9355 32.4953 37.8496 32.7668 37.0353C33.3097 35.9494 33.5811 35.1351 34.3955 34.3207C35.2099 33.5063 36.0243 32.9634 37.1101 32.6919C37.9245 32.4205 39.0103 32.149 41.182 31.8775C43.6251 31.8775 44.4395 31.8775 50.4116 31.8775ZM50.4116 27.8057C44.168 27.8057 43.6251 27.8057 41.182 27.8057C38.7388 27.8057 37.1101 28.3486 35.7528 28.8915C34.3955 29.4344 33.0382 30.2488 31.6809 31.6061C30.3236 32.9634 29.7807 34.0492 28.9663 35.678C28.4234 37.0353 28.152 38.664 27.8805 41.1071C27.8805 43.5503 27.8805 44.3647 27.8805 50.3367C27.8805 56.5803 27.8805 57.1232 27.8805 59.5663C27.8805 62.0095 28.4234 63.6382 28.9663 64.9955C29.5092 66.3528 30.3236 67.7101 31.6809 69.0674C33.0382 70.4247 34.124 70.9676 35.7528 71.782C37.1101 72.3249 38.7388 72.5964 41.182 72.8678C43.6251 72.8678 44.4395 72.8678 50.4116 72.8678C56.3837 72.8678 57.198 72.8678 59.6412 72.8678C62.0843 72.8678 63.7131 72.3249 65.0703 71.782C66.4276 71.2391 67.7849 70.4247 69.1422 69.0674C70.4995 67.7101 71.0424 66.6243 71.8568 64.9955C72.3997 63.6382 72.6712 62.0095 72.9426 59.5663C72.9426 57.1232 72.9426 56.3088 72.9426 50.3367C72.9426 44.3647 72.9426 43.5503 72.9426 41.1071C72.9426 38.664 72.3997 37.0353 71.8568 35.678C71.3139 34.3207 70.4995 32.9634 69.1422 31.6061C67.7849 30.2488 66.6991 29.7059 65.0703 28.8915C63.7131 28.3486 62.0843 28.0771 59.6412 27.8057C57.198 27.8057 56.6551 27.8057 50.4116 27.8057Z" fill="#35296D"/>
<path d="M50.4116 38.664C43.8966 38.664 38.7388 43.8217 38.7388 50.3367C38.7388 56.8518 43.8966 62.0095 50.4116 62.0095C56.9266 62.0095 62.0843 56.8518 62.0843 50.3367C62.0843 43.8217 56.9266 38.664 50.4116 38.664ZM50.4116 57.9376C46.3397 57.9376 42.8107 54.6801 42.8107 50.3367C42.8107 46.2649 46.0682 42.7359 50.4116 42.7359C54.4835 42.7359 58.0124 45.9934 58.0124 50.3367C58.0124 54.4086 54.4835 57.9376 50.4116 57.9376Z" fill="#35296D"/>
<path d="M62.3558 41.1071C63.855 41.1071 65.0703 39.8918 65.0703 38.3926C65.0703 36.8933 63.855 35.678 62.3558 35.678C60.8565 35.678 59.6412 36.8933 59.6412 38.3926C59.6412 39.8918 60.8565 41.1071 62.3558 41.1071Z" fill="#35296D"/>
</svg>
